Coordinates
version=1
nRows=6
nColumns=36
inDegrees=yes

Units are S.I. units (second, meters, Newtons, ...)
If the header above contains a line with 'inDegrees', this indicates whether rotational values are in degrees (yes) or radians (no).

endheader
time	pelvis_tilt	pelvis_list	pelvis_rotation	pelvis_tx	pelvis_ty	pelvis_tz	hip_flexion_r	hip_adduction_r	hip_rotation_r	knee_angle_r	knee_angle_r_beta	ankle_angle_r	subtalar_angle_r	mtp_angle_r	hip_flexion_l	hip_adduction_l	hip_rotation_l	knee_angle_l	knee_angle_l_beta	ankle_angle_l	subtalar_angle_l	mtp_angle_l	lumbar_extension	lumbar_bending	lumbar_rotation	arm_flex_r	arm_add_r	arm_rot_r	elbow_flex_r	pro_sup_r	arm_flex_l	arm_add_l	arm_rot_l	elbow_flex_l	pro_sup_l
      0.00000000	     -0.65688368	     -0.82344486	      4.85760325	      0.36744560	      0.93485501	     -0.10505438	     28.12286510	     -4.33882046	     -1.77253367	     53.73654426	      0.93787963	    -30.64173272	    -23.37780316	     -6.68569001	      1.55753207	      3.97590309	      7.77664620	     10.75187742	      0.18765566	      8.59302191	      1.16052502	     -6.68569001	     -0.81181492	     -1.47229271	     -5.80553606	     47.33958121	      9.79151924	     58.49599798	    128.38686898	    103.85151986	     37.04664420	     11.47473859	     62.50118239	    117.10462105	    103.33847185
      0.01666670	     -1.33598150	     -1.07960039	      7.02640055	      0.37496622	      0.93115538	     -0.10460914	     28.81625066	     -5.09206030	     -3.22836740	     53.50915280	      0.93391090	    -28.96625281	    -18.77310690	     -6.71735406	      1.01719092	      3.64531240	     10.05278728	      9.31493127	      0.16257622	      7.58951373	      2.59525755	     -6.71735406	      0.67402262	     -1.62130403	     -7.81667115	     47.96366333	     10.28130056	     59.28441819	    131.02131380	    103.95045880	     37.60183700	     10.64068033	     63.97038721	    121.34353156	    102.34487427
      0.03333330	     -2.43487385	     -0.82198819	      7.31504101	      0.37165600	      0.92723306	     -0.10705395	     31.00402376	     -6.01407376	     -3.59087365	     54.24820676	      0.94680982	    -31.18326663	    -19.47091097	     -6.79208284	      2.06699587	      4.15471496	      9.90156005	      8.77710774	      0.15318943	      6.07724418	      3.24266441	     -6.79208284	      2.34004581	     -1.71251063	     -8.00105794	     47.53665684	     10.73025215	     60.44180434	    131.29266696	    102.41333177	     37.34455970	      9.65050622	     63.66176734	    123.74798231	     99.45588849
      0.05000000	     -2.74642343	     -0.71868615	      7.75114146	      0.38193835	      0.92793407	     -0.10849938	     31.11295752	     -6.63332050	     -4.09463423	     55.22961057	      0.96393855	    -30.85061060	    -18.73919730	     -6.92573581	      1.30397613	      4.35939458	     10.53748989	      7.27504020	      0.12697340	      5.87850131	      4.32016874	     -6.92573581	      3.42722303	     -2.07650560	     -8.39178394	     46.73918119	     10.68059245	     61.81032433	    131.37330584	    103.69515903	     36.92676313	      9.62930809	     63.73871284	    123.47970429	     92.33969935
      0.06666670	     -3.10617920	     -0.49506263	      8.23075813	      0.37805749	      0.92746516	     -0.11107883	     31.25395753	     -7.37695776	     -4.29499235	     55.09625313	      0.96161102	    -30.02294605	    -18.23159153	     -6.93739452	      1.36168543	      4.69852966	     10.60345436	      6.93736389	      0.12107984	      5.73420043	      4.27007878	     -6.93739452	      3.86287259	     -2.13741953	     -8.53746420	     46.43370345	     10.53346108	     63.32117671	    131.35793098	    103.59360271	     36.90015774	      9.96511409	     64.33150605	    122.97384590	     91.94015745
      0.08333330	     -3.09506101	     -0.40582279	      8.78758588	      0.37856353	      0.92981476	     -0.11143119	     30.71756866	     -7.69827061	     -4.94389258	     54.64230365	      0.95368811	    -29.98854757	    -17.72186965	     -7.08107717	      1.02478850	      4.68427614	     10.47649774	      6.31346427	      0.11019074	      5.26928943	      4.22417176	     -7.08107717	      3.94722133	     -2.31910316	     -8.74329004	     46.09079532	     10.03589837	     64.08417315	    131.29321030	    100.77136368	     36.87566543	     10.41935908	     64.98963208	    122.11416625	     87.63226954
